<?xml version="1.0" encoding="utf-8"?>
<!-- Generator: Adobe Adobe Illustrator 24.2.0, SVG Export Plug-In . SVG Version: 6.00 Build 0)  -->
<svg version="1.1" xmlns="http://www.w3.org/2000/svg" xmlns:xlink="http://www.w3.org/1999/xlink" x="0px" y="0px"
	 viewBox="0 0 750 500" style="enable-background:new 0 0 750 500;" xml:space="preserve">
<style type="text/css">
	.st0{opacity:0.27;fill:#7229B5;}
	.st1{fill:#6505FC;}
	.st2{fill:none;stroke:#6505FC;stroke-miterlimit:10;}
	.st3{fill:none;stroke:#6505FC;stroke-linecap:round;stroke-linejoin:round;stroke-miterlimit:10;}
	.st4{fill:none;stroke:#FFFFFF;stroke-linecap:round;stroke-linejoin:round;stroke-miterlimit:10;}
	.st5{fill:#FAAD3B;stroke:#6505FC;stroke-miterlimit:10;}
	.st6{opacity:0.75;}
	.st7{fill:#F5E073;}
	.st8{fill:#E3C940;}
	.st9{fill:#FAAD3B;}
	.st10{opacity:0.49;}
	.st11{fill:#E8A137;}
	.st12{fill:#EDEDED;}
	.st13{fill:#6505FC;stroke:#7229B5;stroke-miterlimit:10;}
	.st14{fill:#EDD349;}
</style>
<g id="BACKGROUND">
</g>
<g id="OBJECTS">
	<g>
		<path class="st0" d="M152.79,446.44c3.06,2.28,8.43,3.92,13.73,5.48h440.84c0.67-0.41,1.33-0.85,1.94-1.37
			c3.87-3.21,5.9-8.08,7.64-12.79c8.36-22.78,12.9-47.34,9.97-71.43c-2.93-24.09-13.82-47.68-32.4-63.29
			c-9.48-7.96-20.72-13.74-29.61-22.36c-27.3-26.46-27.68-74.43-59.01-95.97c-14.43-9.92-32.92-12.04-50.4-10.89
			c-16.33,1.08-32.72,4.85-46.85,13.11c-14.76,8.62-26.33,21.62-38.59,33.52c-24.58,23.85-54.43,44.58-88.45,48.54
			c-21.64,2.52-43.54-1.9-65.29-0.57c-23.74,1.45-47,9.93-66.1,24.09c-12.23,9.07-22.99,20.77-28.31,35.05
			c-7.86,21.12-2.9,44.8,4.69,66.02C131.85,408.21,140.04,436.93,152.79,446.44z"/>
		<path class="st0" d="M596.48,386.31c-11.59,21.74-23.27,43.44-34.86,65.18c-1.56,2.93-3.22,5.97-5.97,7.83
			c-3.54,2.41-8.14,2.37-12.42,2.25c-23.19-0.66-46.33-1.08-69.52-1.29c-53.4-0.49-106.8-0.97-160.2-1.46
			c-23.96-0.22-47.92-0.44-71.88-0.66c-15.67-0.14-31.26,0.46-46.9,0.5c-7.95,0.02-16.39-1.5-22.27-6.85
			c-4.89-4.45-7.34-10.92-9.47-17.18c-11.44-33.72-18.33-68.97-20.46-104.52c-1.82-30.49,4.96-61.28,29.38-81.8
			c9.1-7.65,19.89-13.19,28.42-21.46c26.2-25.4,26.57-71.45,56.65-92.12c13.86-9.52,31.6-11.56,48.38-10.45
			c15.67,1.03,31.41,4.66,44.97,12.58c14.16,8.27,25.27,20.75,37.04,32.18c23.59,22.9,52.25,42.79,84.91,46.6
			c20.77,2.42,41.8-1.82,62.67-0.55c22.79,1.39,45.12,9.53,63.46,23.12c11.74,8.7,22.07,19.94,27.17,33.64
			c11.14,29.93-1,61.34-15.06,88L596.48,386.31z"/>
	</g>
	<g>
		<g>
			<g>
				<g>
					<path class="st1" d="M509.81,393.31c0,0,17.48,9.86,17.19,3.44c-0.26-5.75-13.85-3.96-16.68-3.52
						C510,393.28,509.81,393.31,509.81,393.31z"/>
				</g>
				<g>
					<path class="st1" d="M509.99,393.1c0,0,9.86-17.48,3.44-17.19C507,376.2,509.99,393.1,509.99,393.1z"/>
				</g>
				<g>
					<path class="st1" d="M498.89,401c0,0,17.48,9.86,17.19,3.44C515.79,398.01,498.89,401,498.89,401z"/>
				</g>
				<g>
					<path class="st1" d="M498.84,401.02c0,0,9.86-17.48,3.44-17.19C495.85,384.12,498.84,401.02,498.84,401.02z"/>
				</g>
				<g>
					<path class="st1" d="M490.14,408.66c0,0,15.34,8.65,15.08,3.01C504.97,406.04,490.14,408.66,490.14,408.66z"/>
				</g>
				<g>
					<path class="st1" d="M490.2,408.8c0,0,8.65-15.34,3.01-15.08C487.58,393.98,490.2,408.8,490.2,408.8z"/>
				</g>
				<g>
					<path class="st1" d="M482.41,417.02c0,0,15.29,6.19,14.38,0.98C495.87,412.79,482.41,417.02,482.41,417.02z"/>
				</g>
				<g>
					<path class="st1" d="M482.65,417.23c0,0,6.19-15.29,0.98-14.38C478.43,403.77,482.65,417.23,482.65,417.23z"/>
				</g>
				<g>
					<g>
						<path class="st1" d="M475.76,426.08c0,0,16.37,2.02,14.14-2.77C487.68,418.52,475.76,426.08,475.76,426.08z"/>
					</g>
					<g>
						<path class="st1" d="M475.97,426.06c0,0,2.02-16.37-2.77-14.14C468.41,414.15,475.97,426.06,475.97,426.06z"/>
					</g>
				</g>
				<g>
					<g>
						<path class="st1" d="M470.55,434.85c0,0,14.2,1.75,12.26-2.4C480.88,428.29,470.55,434.85,470.55,434.85z"/>
					</g>
					<g>
						<path class="st1" d="M470.9,434.92c0,0,1.75-14.2-2.4-12.26C464.35,424.6,470.9,434.92,470.9,434.92z"/>
					</g>
				</g>
				<g>
					<g>
						<path class="st1" d="M467.06,441.9c0,0,12.12,1.5,10.47-2.05C475.88,436.3,467.06,441.9,467.06,441.9z"/>
					</g>
					<g>
						<path class="st1" d="M467.43,442.02c0,0,1.5-12.12-2.05-10.47C461.84,433.2,467.43,442.02,467.43,442.02z"/>
					</g>
				</g>
			</g>
		</g>
		<path class="st1" d="M509.04,393.84c0,0,19.23-7.86,17.2-11.43C524.21,378.85,509.04,393.84,509.04,393.84z"/>
		<path class="st2" d="M512.84,391.41c0,0-42.31,22.04-51.11,69.48"/>
	</g>
	<g>
		<g>
			<g>
				<g>
					<path class="st1" d="M204.07,342.73c0,0-34.69,0.37-28.9-9.12c5.19-8.5,24.27,5.54,28.19,8.56
						C203.82,342.53,204.07,342.73,204.07,342.73z"/>
				</g>
				<g>
					<path class="st1" d="M203.98,342.26c0,0-0.37-34.69,9.12-28.9C222.58,319.15,203.98,342.26,203.98,342.26z"/>
				</g>
				<g>
					<path class="st1" d="M214.21,363.46c0,0-34.69,0.37-28.9-9.12C191.1,344.86,214.21,363.46,214.21,363.46z"/>
				</g>
				<g>
					<path class="st1" d="M214.27,363.55c0,0-0.37-34.69,9.12-28.9C232.87,340.43,214.27,363.55,214.27,363.55z"/>
				</g>
				<g>
					<path class="st1" d="M221.07,382.36c0,0-30.43,0.32-25.36-8C200.8,366.04,221.07,382.36,221.07,382.36z"/>
				</g>
				<g>
					<path class="st1" d="M220.87,382.53c0,0-0.32-30.43,8-25.36C237.19,362.25,220.87,382.53,220.87,382.53z"/>
				</g>
				<g>
					<path class="st1" d="M225.83,401.46c0,0-28.32-3.37-22.6-10.49C208.96,383.85,225.83,401.46,225.83,401.46z"/>
				</g>
				<g>
					<path class="st1" d="M225.29,401.59c0,0,3.37-28.32,10.49-22.6C242.9,384.72,225.29,401.59,225.29,401.59z"/>
				</g>
			</g>
		</g>
		<path class="st1" d="M204.8,344.18c0,0-22.58-27.93-16.53-31.65C194.31,308.82,204.8,344.18,204.8,344.18z"/>
		<path class="st3" d="M201.06,337.32c0,0,27.97,41.98,27.64,98.16"/>
	</g>
	<g>
		<g>
			<g>
				<g>
					<path class="st1" d="M496.3,236.19c0,0,20.14,28.25,24.39,17.99c3.81-9.2-18.78-16.35-23.53-17.74
						C496.61,236.27,496.3,236.19,496.3,236.19z"/>
				</g>
				<g>
					<path class="st1" d="M496.73,235.99c0,0,28.25-20.13,17.99-24.39C504.45,207.34,496.73,235.99,496.73,235.99z"/>
				</g>
				<g>
					<path class="st1" d="M473.57,240.21c0,0,20.13,28.25,24.39,17.99C502.22,247.93,473.57,240.21,473.57,240.21z"/>
				</g>
				<g>
					<path class="st1" d="M473.47,240.21c0,0,28.25-20.13,17.99-24.39C481.19,211.57,473.47,240.21,473.47,240.21z"/>
				</g>
				<g>
					<path class="st1" d="M454.26,245.79c0,0,17.66,24.78,21.4,15.78C479.39,252.57,454.26,245.79,454.26,245.79z"/>
				</g>
				<g>
					<path class="st1" d="M454.24,246.06c0,0,24.78-17.66,15.78-21.4C461.02,220.93,454.24,246.06,454.24,246.06z"/>
				</g>
				<g>
					<path class="st1" d="M436.02,253.2c0,0,19.41,20.9,21.79,12.08C460.19,256.46,436.02,253.2,436.02,253.2z"/>
				</g>
				<g>
					<path class="st1" d="M436.23,253.72c0,0,20.9-19.41,12.08-21.79C439.5,229.54,436.23,253.72,436.23,253.72z"/>
				</g>
				<g>
					<g>
						<path class="st1" d="M418.97,262.51c0,0,24.15,15.17,24.17,6.04C443.16,259.41,418.97,262.51,418.97,262.51z"/>
					</g>
					<g>
						<path class="st1" d="M419.31,262.63c0,0,15.17-24.15,6.04-24.17C416.21,238.44,419.31,262.63,419.31,262.63z"/>
					</g>
				</g>
				<g>
					<g>
						<path class="st1" d="M404.37,272.41c0,0,20.94,13.16,20.96,5.24C425.35,269.73,404.37,272.41,404.37,272.41z"/>
					</g>
					<g>
						<path class="st1" d="M404.87,272.79c0,0,13.16-20.94,5.24-20.96C402.19,251.82,404.87,272.79,404.87,272.79z"/>
					</g>
				</g>
				<g>
					<g>
						<path class="st1" d="M393.74,280.9c0,0,17.88,11.24,17.9,4.47C411.66,278.6,393.74,280.9,393.74,280.9z"/>
					</g>
					<g>
						<path class="st1" d="M394.24,281.36c0,0,11.24-17.88,4.47-17.9C391.94,263.44,394.24,281.36,394.24,281.36z"/>
					</g>
				</g>
			</g>
		</g>
		<path class="st1" d="M494.7,236.45c0,0,35.87,1.79,35.31-5.28C529.45,224.1,494.7,236.45,494.7,236.45z"/>
		<path class="st2" d="M502.44,235.43c0,0-82.39,3.47-130.98,71.28"/>
	</g>
	<g>
		<g>
			<g>
				<path class="st1" d="M316.32,316.2c1.25-0.54-9.12-31.02-9.8-32.63c-10.06-24.08-25.08-43.68-43.26-56.37
					c-33.59-23.44-72.83-21.05-110.51-12.04c4.67,0.11,8.9,3.05,12.72,6.37c25,21.7,38.27,61.28,64.05,81.43
					C254.52,322.5,287.17,328.76,316.32,316.2z"/>
			</g>
		</g>
		<g>
			<path class="st4" d="M301.39,309.6c0,0-46.32-79.73-129.43-90.67"/>
			<polyline class="st4" points="226.16,216.57 234.59,241.82 192.78,243.6 			"/>
			<polyline class="st4" points="258.16,237.56 266.39,266.74 231.23,268.58 			"/>
			<polyline class="st4" points="286.65,264.41 291.16,294.52 255.56,291.26 			"/>
		</g>
	</g>
	<g>
		<g>
			<g>
				<g>
					<g>
						<polygon class="st5" points="326.8,308.56 321.07,323.11 283.24,419.2 279.31,404.96 275.12,361.09 291.29,313.3 						"/>
						<g class="st6">
							<polygon class="st7" points="321.07,323.11 283.24,419.2 279.31,404.96 317.08,322.26 							"/>
						</g>
					</g>
					<g>
						<polygon class="st5" points="455.99,378.14 450.99,403.28 447.83,419.2 410,323.11 404.26,308.56 439.77,313.3 						"/>
						<g class="st6">
							<polygon class="st7" points="450.99,403.28 447.83,419.2 410,323.11 414,322.26 							"/>
						</g>
					</g>
					<g>
						<g>
							<g>
								<path class="st7" d="M323.31,378.64c-0.13,0-0.26-0.05-0.35-0.14c-0.1-0.09-0.15-0.22-0.15-0.36c0-0.8-0.02-1.62-0.05-2.42
									l-0.03-1.19l-0.03-0.69c-0.02-0.42-0.04-0.84-0.06-1.26c-0.05-0.95-0.1-1.87-0.14-2.8c-0.12-1.66-0.25-3.33-0.4-4.98
									l-0.02-0.27c-0.02-0.18-0.03-0.35-0.04-0.53l-0.03-1.1l-0.03-0.59c-0.02-0.43-0.04-0.86-0.06-1.29l-0.15-2.79
									c-0.11-1.67-0.24-3.33-0.39-4.98l-0.12-1.43l-0.17-1.61c-0.05-0.54-0.1-1.03-0.16-1.5l-0.07-0.67
									c-0.06-0.58-0.12-1.14-0.2-1.71l-0.08-0.58l-0.18-1.48c-0.06-0.48-0.12-0.96-0.19-1.43l-0.02-0.16
									c-0.06-0.44-0.12-0.87-0.18-1.29l-0.28-1.89c-0.04-0.3-0.09-0.6-0.14-0.9c-0.07-0.48-0.14-0.92-0.22-1.37
									c-0.21-1.36-0.43-2.68-0.65-3.96c-0.06-0.37-0.12-0.71-0.19-1.07c-0.14-0.81-0.29-1.6-0.43-2.37l-0.11-0.58
									c-0.11-0.57-0.22-1.11-0.33-1.66c-0.23-1.21-0.47-2.35-0.69-3.44c-13.19-1.27-27.8-7.94-27.95-8.01
									c-0.25-0.11-0.36-0.41-0.25-0.65l18.03-41.18c4.08-6.5,20.17-11.51,32.96-14.58c6.42-1.53,11.55-2.46,12.66-2.66
									c0.06-0.03,0.13-0.05,0.2-0.05c0.01,0,13.22,1.2,13.22,1.2s13.58-1.2,13.59-1.2c0.08,0,0.15,0.02,0.22,0.05
									c2.61,0.45,39.16,6.95,45.57,17.17l18.06,41.25c0.11,0.25,0,0.54-0.25,0.65c-0.15,0.07-15.26,6.97-28.61,8.08
									c-5.7,21.91-5.37,52.31-5.36,52.61c0,0.28-0.22,0.5-0.49,0.51l-12.56,0.19l-18.93,0.3l-22.06,0.34l-2.61,0.03
									C352.43,378.18,323.31,378.64,323.31,378.64z"/>
								<path class="st1" d="M379.45,257.51v0.02c0.13,0.02,38.92,6.69,45.36,16.96l18.03,41.18c0,0-15.29,7.04-28.79,8.06
									c-5.88,22.25-5.47,53.09-5.47,53.09l-12.56,0.19l-18.93,0.3l-22.06,0.34l-2.61,0.03l-11.52,0.18l-17.59,0.27
									c0-0.81-0.02-1.63-0.05-2.44c-0.01-0.43-0.02-0.86-0.03-1.27c-0.03-0.64-0.05-1.27-0.09-1.89c-0.05-0.93-0.1-1.86-0.14-2.79
									c-0.12-1.68-0.25-3.35-0.4-5c-0.02-0.26-0.05-0.51-0.06-0.77c-0.01-0.37-0.02-0.75-0.03-1.1c-0.03-0.64-0.05-1.26-0.09-1.89
									c-0.05-0.93-0.1-1.86-0.15-2.79c-0.11-1.68-0.24-3.34-0.39-5c-0.04-0.48-0.08-0.95-0.12-1.43
									c-0.06-0.54-0.11-1.08-0.17-1.62c-0.05-0.5-0.1-1.01-0.16-1.5c-0.09-0.81-0.17-1.6-0.27-2.39c-0.03-0.2-0.05-0.39-0.08-0.59
									c-0.06-0.5-0.12-0.98-0.18-1.47c-0.06-0.49-0.12-0.97-0.19-1.44c-0.07-0.49-0.14-0.97-0.2-1.44
									c-0.07-0.47-0.14-0.95-0.21-1.42c-0.07-0.46-0.13-0.93-0.21-1.39c-0.07-0.47-0.14-0.92-0.22-1.37
									c-0.21-1.35-0.43-2.67-0.65-3.96c-0.06-0.37-0.12-0.72-0.19-1.08c-0.17-1-0.36-1.98-0.54-2.94
									c-0.11-0.57-0.22-1.12-0.33-1.67c-0.26-1.34-0.52-2.61-0.77-3.81c-13.35-1.18-28.15-8-28.15-8l18.03-41.18
									c4.02-6.4,20.66-11.42,32.62-14.29c7.18-1.71,12.68-2.66,12.73-2.67l0.01-0.02l0.3,0.03l12.88,1.17L379.45,257.51
									 M352.63,256.51c-0.12,0-0.25,0.02-0.36,0.07c-1.3,0.23-6.36,1.16-12.61,2.65c-12.88,3.09-29.11,8.16-33.24,14.73
									c-0.03,0.04-0.05,0.09-0.07,0.13l-18.03,41.18c-0.22,0.5,0,1.08,0.5,1.31c0.6,0.28,14.58,6.66,27.74,8.02
									c0.2,0.98,0.41,2.01,0.62,3.08c0.11,0.55,0.22,1.1,0.33,1.67l0.11,0.6c0.14,0.76,0.29,1.53,0.42,2.32
									c0.07,0.37,0.13,0.71,0.19,1.07c0.22,1.29,0.44,2.61,0.65,3.95c0.08,0.46,0.15,0.9,0.22,1.36c0.05,0.31,0.1,0.61,0.14,0.9
									l0.07,0.49l0.1,0.71l0.11,0.71c0.05,0.39,0.11,0.81,0.17,1.23l0.03,0.2c0.07,0.47,0.13,0.94,0.19,1.42l0.06,0.48l0.12,0.99
									c0.02,0.12,0.03,0.21,0.04,0.3c0.01,0.1,0.03,0.21,0.04,0.32c0.07,0.54,0.13,1.1,0.19,1.67l0.07,0.68
									c0.06,0.46,0.1,0.92,0.15,1.37l0.01,0.12c0.03,0.28,0.06,0.55,0.09,0.81c0.03,0.27,0.06,0.55,0.09,0.82l0.06,0.7l0.06,0.71
									c0.15,1.67,0.28,3.34,0.39,4.98l0.08,1.42l0.07,1.36c0.03,0.43,0.05,0.85,0.06,1.27l0.03,0.61l0.02,0.8l0.01,0.28
									c0.01,0.2,0.02,0.38,0.04,0.57l0.02,0.25c0.14,1.49,0.27,3.12,0.4,4.99c0.04,0.91,0.09,1.84,0.14,2.77
									c0.03,0.43,0.04,0.84,0.06,1.27l0.03,0.61l0.03,1.19l0,0.05c0.03,0.91,0.05,1.7,0.05,2.42c0,0.27,0.11,0.52,0.3,0.71
									c0.19,0.18,0.44,0.29,0.7,0.29c0.01,0,0.01,0,0.02,0l17.59-0.27l11.52-0.18l2.61-0.03l22.06-0.34l18.93-0.3l12.56-0.19
									c0.55-0.01,0.99-0.46,0.98-1.01c0-0.3-0.33-30.33,5.26-52.14c13.33-1.2,27.8-7.8,28.42-8.09c0.49-0.23,0.72-0.81,0.5-1.31
									l-18.03-41.18c-0.02-0.05-0.04-0.09-0.07-0.13c-6.52-10.39-42.98-16.89-45.88-17.39c-0.11-0.04-0.22-0.06-0.34-0.06
									c-0.03,0-0.05,0-0.08,0l-13.55,1.19l-12.79-1.16l-0.29-0.03C352.7,256.52,352.66,256.51,352.63,256.51L352.63,256.51z"/>
							</g>
						</g>
					</g>
					<path class="st8" d="M377.09,377.32l-22.06,0.34l-2.61,0.03l-29.11,0.45c0-0.81-0.02-1.63-0.05-2.44
						c-0.01-0.43-0.02-0.86-0.03-1.27c-0.03-0.64-0.05-1.27-0.09-1.89c-0.05-0.93-0.1-1.86-0.14-2.79c-0.12-1.68-0.25-3.35-0.4-5
						c-0.02-0.26-0.05-0.51-0.06-0.77c-0.01-0.37-0.02-0.75-0.03-1.1c-0.03-0.64-0.05-1.26-0.09-1.89c-0.05-0.93-0.1-1.86-0.15-2.79
						c-0.11-1.68-0.24-3.34-0.39-5c-0.04-0.48-0.08-0.95-0.12-1.43c-0.06-0.54-0.11-1.08-0.17-1.62c-0.05-0.5-0.1-1.01-0.16-1.5
						c-0.09-0.81-0.17-1.6-0.27-2.39c-0.03-0.2-0.05-0.39-0.08-0.59c-0.06-0.5-0.12-0.98-0.18-1.47c-0.06-0.49-0.12-0.97-0.19-1.44
						c-0.07-0.49-0.14-0.97-0.2-1.44c-0.07-0.47-0.14-0.95-0.21-1.42c-0.07-0.46-0.13-0.93-0.21-1.39
						c-0.07-0.47-0.14-0.92-0.22-1.37c-0.21-1.35-0.43-2.67-0.65-3.96c-0.06-0.37-0.12-0.72-0.19-1.08c-0.17-1-0.36-1.98-0.54-2.94
						c-0.11-0.57-0.22-1.12-0.33-1.67c-0.26-1.34-0.52-2.61-0.77-3.81C317.39,323.67,345.67,360.07,377.09,377.32z"/>
				</g>
				<g>
					<g>
						<g>
							<path class="st9" d="M379.45,229.93v30.28c0,0-3.17,2.38-10.34,2.81c-0.7,0.04-1.45,0.06-2.23,0.06
								c-4.98,0-8.66-0.79-11.02-1.54c-2.15-0.68-3.23-1.33-3.23-1.33v-27.06L379.45,229.93z"/>
							<g class="st6">
								<path class="st7" d="M369.11,263.02c-0.7,0.04-1.45,0.06-2.23,0.06c-4.98,0-8.66-0.79-11.02-1.54
									c-2.15-0.68-3.23-1.33-3.23-1.33v-24.89l10.76,5.17C363.39,240.49,360.98,255.2,369.11,263.02z"/>
							</g>
							<polyline class="st3" points="352.63,260.21 352.63,233.14 379.45,229.92 379.45,260.21 							"/>
						</g>
						<g>
							<g>
								<g>
									<path class="st5" d="M333.73,200.97c0.34,4.72-1.56,8.69-4.23,8.89c-2.68,0.19-5.12-3.47-5.46-8.19
										c-0.34-4.72,1.56-8.69,4.23-8.89C330.94,192.59,333.39,196.26,333.73,200.97z"/>
									<g>
										<g class="st6">
											<path class="st7" d="M325.84,199.48c0.72-0.7,1.81-0.72,2.66-0.21c0.97,0.59,1.36,1.75,1.67,2.77
												c0.21,0.72-0.91,1.03-1.12,0.31c-0.19-0.62-0.37-1.31-0.82-1.81c-0.39-0.42-1.1-0.7-1.57-0.24
												C326.13,200.83,325.31,200,325.84,199.48L325.84,199.48z"/>
										</g>
									</g>
								</g>
								<g>
									<path class="st5" d="M397.7,200.97c-0.34,4.72,1.56,8.69,4.23,8.89c2.68,0.19,5.12-3.47,5.46-8.19
										c0.34-4.72-1.56-8.69-4.23-8.89C400.48,192.59,398.04,196.26,397.7,200.97z"/>
									<g>
										<g class="st6">
											<path class="st7" d="M405.58,199.48c-0.72-0.7-1.81-0.72-2.66-0.21c-0.97,0.59-1.36,1.75-1.67,2.77
												c-0.21,0.72,0.91,1.03,1.12,0.31c0.19-0.62,0.37-1.31,0.82-1.81c0.39-0.42,1.1-0.7,1.57-0.24
												C405.3,200.83,406.12,200,405.58,199.48L405.58,199.48z"/>
										</g>
									</g>
								</g>
								<g>
									<g>
										<g>
											<path class="st9" d="M366.84,243.16c-2.89,0-5.75-0.37-8.5-1.1c-2.07-0.54-4.06-1.27-5.92-2.16
												c-0.68-0.33-1.29-0.64-1.85-0.96c-0.92-0.51-1.88-1.12-2.93-1.84c-8.34-5.84-14.18-15.5-16.9-27.95
												c-1.17-5.52-1.74-11.57-1.68-17.99c-0.04-1.55-0.03-3.07,0.04-4.52l0.01-0.14l0.02-0.03
												c0.85-15.31,8.03-28.72,19.23-35.91c0.76-0.49,1.54-0.95,2.31-1.36c4.4-2.42,9.14-3.72,14.08-3.85
												c0.31-0.01,0.63-0.01,0.94-0.01c6.18,0,12.31,1.89,17.73,5.46c10.01,6.57,17.15,18.54,19.1,32.02l0.05,0.5
												c0.26,1.85,0.42,3.76,0.47,5.67c0.02,1.34,0.02,2.66,0,3.94l-0.06,1.86c-0.16,4.35-0.59,8.55-1.3,12.48
												c-2.71,14.86-9.55,26.14-19.26,31.76c-0.73,0.47-1.57,0.92-2.55,1.37l-0.31-0.41l0.21,0.45l-0.11,0.05
												c-3.64,1.63-7.6,2.53-11.75,2.66C367.54,243.16,367.19,243.16,366.84,243.16z"/>
											<g>
												<path class="st1" d="M365.67,145.83c6.29,0,12.24,1.94,17.46,5.37c9.73,6.39,16.89,17.94,18.88,31.67l0.05,0.48
													c0.26,1.83,0.42,3.72,0.47,5.63c0.02,1.33,0.02,2.64,0,3.92c-0.02,0.62-0.04,1.24-0.06,1.85
													c-0.16,4.43-0.6,8.56-1.29,12.41c-2.8,15.34-9.73,26.04-19.02,31.42c-0.81,0.52-1.66,0.96-2.51,1.35
													c-0.07,0.03-0.13,0.06-0.2,0.09c-3.59,1.61-7.48,2.49-11.57,2.62c-0.35,0.01-0.7,0.02-1.04,0.02
													c-2.85,0-5.66-0.36-8.38-1.09c-1.99-0.52-3.94-1.22-5.83-2.13c-0.61-0.29-1.22-0.6-1.82-0.94
													c-0.99-0.55-1.94-1.16-2.89-1.82c-7.74-5.42-13.85-14.61-16.7-27.65c-1.13-5.31-1.73-11.27-1.67-17.88
													c-0.04-1.51-0.03-3.02,0.04-4.5c0-0.02,0-0.02,0.02-0.05c0.82-15.44,8.25-28.73,19.01-35.63
													c0.74-0.48,1.5-0.93,2.27-1.34c4.23-2.33,8.9-3.66,13.86-3.79C365.06,145.84,365.37,145.83,365.67,145.83
													 M365.67,144.83L365.67,144.83c-0.32,0-0.64,0-0.95,0.01c-5.02,0.13-9.84,1.45-14.31,3.91
													c-0.77,0.41-1.56,0.87-2.33,1.38c-11.33,7.26-18.59,20.81-19.46,36.27c-0.02,0.07-0.03,0.16-0.03,0.25
													c-0.07,1.41-0.08,2.95-0.04,4.53c-0.06,6.42,0.51,12.51,1.69,18.06c2.75,12.58,8.66,22.35,17.1,28.26
													c1.07,0.74,2.04,1.35,2.98,1.88c0.56,0.32,1.18,0.64,1.88,0.97c1.88,0.91,3.9,1.64,6.01,2.19
													c2.79,0.74,5.7,1.12,8.63,1.12c0.36,0,0.72-0.01,1.07-0.02c4.22-0.13,8.24-1.04,11.95-2.71l0.11-0.05l0.07-0.03
													c1.03-0.47,1.89-0.93,2.66-1.43c9.8-5.67,16.72-17.08,19.46-32.08c0.71-3.95,1.15-8.18,1.31-12.55l0.05-1.65l0.01-0.2
													c0.02-1.3,0.02-2.63,0-3.97c-0.05-1.94-0.21-3.87-0.48-5.76l-0.05-0.44c-1.98-13.65-9.2-25.75-19.33-32.4
													C378.17,146.75,371.95,144.83,365.67,144.83L365.67,144.83z"/>
											</g>
										</g>
										<path class="st3" d="M364.83,196.82c0,0,2.47,8.42,0.43,13.2c-0.39,0.92,0.18,1.94,1.17,2.04
											c1.54,0.15,3.77-0.08,6.18-1.8"/>
										<path class="st3" d="M364.33,219.79c0,0,7.59,3.29,13.78-3.23"/>
										<path class="st3" d="M376.77,185.54c0,0,6.6-1.93,9.78,0.93"/>
										<path class="st3" d="M347.64,185.54c0,0,6.6-1.93,9.78,0.93"/>
										<g class="st6">
											<path class="st7" d="M367.88,242.65c-3.2,0.1-6.37-0.26-9.42-1.07c-1.99-0.52-3.94-1.22-5.83-2.13
												c-0.61-0.29-1.22-0.6-1.82-0.94c-0.99-0.55-1.94-1.16-2.89-1.82c-7.74-5.42-13.85-14.61-16.7-27.65
												c-1.13-5.31-1.73-11.27-1.67-17.88c-0.04-1.51-0.03-3.02,0.04-4.5c0-0.02,0-0.02,0.02-0.05
												c0.82-15.44,8.25-28.73,19.01-35.63l2.7,11.22c0,0-13.26,51.92,1.31,72.35C356.03,239.32,360.94,242.37,367.88,242.65z"
												/>
										</g>
									</g>
									<g>
										<g class="st10">
											<path class="st11" d="M391.41,209.67c-0.81,3.44-4.26,5.56-7.7,4.75c-3.44-0.81-5.56-4.26-4.75-7.7
												c0.81-3.44,4.26-5.56,7.7-4.75C390.1,202.79,392.23,206.23,391.41,209.67z"/>
											<path class="st11" d="M353.06,210.67c-0.81,3.44-4.26,5.56-7.7,4.75c-3.44-0.81-5.56-4.26-4.75-7.7
												c0.81-3.44,4.26-5.56,7.7-4.75C351.75,203.79,353.88,207.23,353.06,210.67z"/>
										</g>
										<g>
											<g>
												<g>
													<g>
														<path class="st1" d="M382.52,194.07c0,2.53-1.38,4.66-3.07,4.77c-1.7,0.11-3.07-1.85-3.07-4.38
															c0-2.53,1.38-4.66,3.07-4.77C381.15,189.58,382.52,191.54,382.52,194.07z"/>
														<path class="st1" d="M356.7,193.91c0.13,2.52-1.12,4.73-2.81,4.93c-1.69,0.2-3.17-1.68-3.3-4.2
															c-0.14-2.52,1.12-4.73,2.81-4.93C355.09,189.5,356.57,191.39,356.7,193.91z"/>
													</g>
												</g>
											</g>
										</g>
									</g>
								</g>
							</g>
						</g>
					</g>
				</g>
			</g>
		</g>
		<g>
			<path class="st1" d="M346.84,255.84c-0.04,0-0.08,0-0.12-0.01c-0.45-0.11-11.2-2.83-19.05-15.92
				c-9.66-16.11-10.5-39.99-2.49-70.98c0.56-2.19,1.18-4.35,1.84-6.43c0.13-0.52,0.27-1.06,0.43-1.6
				c1.83-6.14,4.29-11.46,7.31-15.83c3.09-4.77,6.62-8.16,10.48-10.06c5.09-3.08,11.09-4.65,17.82-4.65c2.97,0,6.13,0.31,9.4,0.91
				c-0.01-0.14-0.01-0.27-0.01-0.41c0-7.03,5.72-12.74,12.74-12.74c7.03,0,12.74,5.72,12.74,12.74c0,4.45-2.32,8.56-6.1,10.87
				c16.18,17.74,11.87,50.79,11.82,51.12c-0.02,0.14-0.1,0.27-0.21,0.34c-0.08,0.06-0.18,0.09-0.28,0.09c-0.04,0-0.08,0-0.12-0.01
				c-0.19-0.05-18.31-4.63-20.78-27.51c-2.26,6.5-11.3,20.06-47.48,26.83c-1.99,20.62-1.41,48.04,12.41,62.41
				c0.15,0.16,0.18,0.4,0.07,0.6C347.18,255.75,347.02,255.84,346.84,255.84z"/>
			<g>
				<path class="st1" d="M385.19,118.61c6.76,0,12.24,5.48,12.24,12.24c0,4.64-2.58,8.68-6.39,10.75
					c16.72,17.65,12.12,51.17,12.12,51.17s-19.8-4.71-20.64-30.64c0,0-0.08,21.12-48.19,30.02c-1.98,20.14-1.74,48.36,12.51,63.18
					c0,0-40.92-9.89-21.17-86.29c0.59-2.27,1.2-4.39,1.83-6.4c0.13-0.54,0.28-1.08,0.43-1.61c1.73-5.8,4.1-11.15,7.24-15.69
					c3.21-4.97,6.69-8.13,10.29-9.9c4.83-2.92,10.65-4.6,17.6-4.6c3,0,6.21,0.31,9.65,0.97c0.1,0.02,0.19,0.04,0.29,0.06
					c-0.03-0.34-0.05-0.68-0.05-1.03C372.95,124.09,378.43,118.61,385.19,118.61 M385.19,117.61c-7.24,0-13.14,5.84-13.24,13.06
					c-3.09-0.54-6.07-0.81-8.89-0.81c-6.8,0-12.88,1.59-18.08,4.72c-3.93,1.94-7.51,5.39-10.65,10.23
					c-3.03,4.38-5.51,9.76-7.36,15.94c-0.15,0.49-0.29,1.03-0.44,1.62c-0.65,2.08-1.27,4.24-1.83,6.42
					c-8.05,31.13-7.19,55.14,2.54,71.36c4.15,6.92,9.16,10.93,12.64,13.08c3.8,2.35,6.6,3.04,6.72,3.07
					c0.08,0.02,0.16,0.03,0.24,0.03c0.35,0,0.69-0.19,0.87-0.5c0.22-0.39,0.16-0.87-0.15-1.19c-13.61-14.14-14.24-41.17-12.31-61.64
					c19.77-3.74,33.88-9.97,41.94-18.5c2.4-2.54,3.89-4.92,4.81-6.9c1.56,10.44,6.4,16.75,10.49,20.33
					c5.18,4.53,10.22,5.77,10.43,5.82c0.08,0.02,0.15,0.03,0.23,0.03c0.2,0,0.4-0.06,0.56-0.17c0.23-0.16,0.39-0.41,0.43-0.69
					c0.19-1.36,4.33-33.11-11.55-51.09c3.63-2.45,5.83-6.55,5.83-10.98C398.43,123.55,392.49,117.61,385.19,117.61L385.19,117.61z"
					/>
			</g>
		</g>
	</g>
	<g>
		<path class="st1" d="M271.51,451.66c-0.28,0-0.5-0.22-0.5-0.5V339.22c0-0.28,0.22-0.5,0.5-0.5h190.22c0.28,0,0.5,0.22,0.5,0.5
			v111.93c0,0.28-0.22,0.5-0.5,0.5H271.51z"/>
		<g>
			<path class="st1" d="M461.73,339.23v111.93H271.51V339.23H461.73 M461.73,338.23H271.51c-0.55,0-1,0.45-1,1v111.93
				c0,0.55,0.45,1,1,1h190.22c0.55,0,1-0.45,1-1V339.23C462.73,338.67,462.28,338.23,461.73,338.23L461.73,338.23z"/>
		</g>
	</g>
	<g>
		<g>
			<path class="st12" d="M208.86,451.42c-0.24,0-0.45-0.18-0.49-0.42c-1.98-11.52-7.18-41.62-7.48-42.62
				c-0.05-0.15-0.02-0.32,0.08-0.45s0.24-0.21,0.4-0.21h42.36c0.15,0,0.29,0.07,0.39,0.18c0.09,0.11,0.13,0.27,0.11,0.41
				l-7.59,39.83c-0.01,0.03-0.02,0.07-0.03,0.1l-0.52,2.76c-0.04,0.24-0.25,0.41-0.49,0.41H208.86z"/>
			<g>
				<path class="st1" d="M243.72,408.22l-7.59,39.83h-0.01l-0.54,2.86h-26.72c0,0-7.17-41.71-7.5-42.69H243.72 M243.72,407.22
					h-42.36c-0.32,0-0.62,0.16-0.81,0.42c-0.19,0.26-0.24,0.6-0.14,0.9c0.3,1.09,4.63,26.04,7.46,42.54
					c0.08,0.48,0.5,0.83,0.99,0.83h26.72c0.48,0,0.89-0.34,0.98-0.81l0.51-2.73c0.01-0.04,0.03-0.09,0.04-0.13l7.59-39.83
					c0.06-0.29-0.02-0.6-0.21-0.82C244.3,407.36,244.02,407.22,243.72,407.22L243.72,407.22z M243.72,409.22L243.72,409.22
					L243.72,409.22L243.72,409.22z"/>
			</g>
		</g>
		<g>
			<path class="st1" d="M222.04,427.34c-1.64-3.68-1.21-7.01-0.54-9.21c-4.4,0.2-7.91,4.51-7.91,9.81c0,5.43,3.68,9.83,8.22,9.83
				c0.12,0,0.24-0.02,0.36-0.02C223.05,435.14,223.75,431.18,222.04,427.34z"/>
			<path class="st1" d="M231.68,427.94c0-5.43-3.68-9.83-8.22-9.83c-0.11,0-0.21,0.01-0.31,0.02c-0.68,2.2-1.1,5.53,0.54,9.21
				c1.71,3.84,1,7.8,0.14,10.4C228.19,437.51,231.68,433.22,231.68,427.94z"/>
		</g>
		<g>
			<path class="st12" d="M201.36,408.72c-0.19,0-0.35-0.1-0.44-0.27s-0.08-0.36,0.03-0.51l4.09-6.06l4.7-6.98
				c0.09-0.14,0.25-0.22,0.41-0.22h25.76c0.18,0,0.34,0.09,0.43,0.24l4.17,6.98l3.64,6.06c0.09,0.16,0.1,0.35,0.01,0.5
				c-0.09,0.16-0.25,0.25-0.44,0.25H201.36z"/>
			<g>
				<path class="st1" d="M235.91,395.18l4.17,6.98l3.64,6.06h-42.36l4.09-6.06l4.7-6.98H235.91 M235.91,394.18h-25.76
					c-0.33,0-0.64,0.17-0.83,0.44l-4.7,6.98l-4.09,6.06c-0.21,0.31-0.23,0.7-0.05,1.03c0.17,0.33,0.51,0.53,0.88,0.53h42.36
					c0.36,0,0.69-0.19,0.87-0.51c0.18-0.31,0.17-0.7-0.01-1.01l-3.64-6.06l-4.17-6.98C236.59,394.37,236.26,394.18,235.91,394.18
					L235.91,394.18z"/>
			</g>
		</g>
	</g>
	<path class="st0" d="M236.12,448.05l-0.54,2.86h-26.72c0,0-7.17-41.71-7.5-42.69l4.09-6.06l4.7-6.98c0,0-0.16,5.54,0.7,13.04
		C212.51,422.89,218.04,445.05,236.12,448.05z"/>
	<g>
		<g>
			<path class="st13" d="M559.53,395.77c0,0,4.24-29.43,17.33-42.34"/>
			<g>
				<path class="st1" d="M573.8,356.86c0.21-0.11,0.42-1.25,0.5-1.46c0.47-1.32,0.97-2.62,1.49-3.92c1.61-3.97,3.45-7.86,5.64-11.54
					c2.54-4.26,5.65-8.68,9.98-11.27c2.16-1.29,5.27-1.92,7.77-1.73c4.17,0.32,7.18,3.85,5.06,7.82c-1.76,3.31-5.23,5.45-8.09,7.72
					c-4.45,3.52-9.22,6.63-14.06,9.58C579.37,353.71,576.61,355.34,573.8,356.86z"/>
			</g>
		</g>
		<g>
			<path class="st13" d="M568.37,408.06c0,0,1.66-22.94,14.75-35.85"/>
			<g>
				<path class="st1" d="M579.4,376.38c0.31-0.17,0.64-1.84,0.77-2.16c0.67-1.79,1.42-3.56,2.24-5.29
					c1.99-4.18,4.46-8.66,8.21-11.54c2.36-1.81,9.17-3.7,10.52,0.51c0.23,0.72,0.05,1.5-0.25,2.19c-1.05,2.48-3.35,4.2-5.38,5.85
					c-2.26,1.83-4.67,3.49-7.11,5.07C585.47,372.91,582.47,374.73,579.4,376.38z"/>
			</g>
		</g>
		<g>
			<path class="st13" d="M539.2,351.26c0,0,13.51,11.5,19.75,47.66"/>
			<g>
				<path class="st1" d="M543.19,355.83c-0.28-0.17-0.56-1.21-0.69-1.5c-0.62-1.33-1.27-2.66-1.92-3.98
					c-2.02-4.04-4.16-8.02-6.52-11.87c-2.43-3.97-5.06-7.95-8.36-11.25c-1.99-1.98-5.08-4.66-8.13-3.59
					c-1.95,0.68-3.68,2.99-3.92,4.97c-0.39,3.2,2.76,6.48,4.82,8.63c2.21,2.3,4.64,4.39,7.13,6.38c4.59,3.67,9.44,7.03,14.39,10.2
					C541.04,354.5,542.11,355.18,543.19,355.83z"/>
			</g>
		</g>
		<g>
			<path class="st13" d="M553.34,396.55c0,0-5.8-17.02,1.9-33.71"/>
			<g>
				<path class="st1" d="M554.09,365.88c-0.19-3.15-0.07-6.36,0.23-9.5c0.47-4.82,1.35-10.7,4.85-14.36
					c1.68-1.75,4.03-2.63,6.46-2.35c8.53,0.99-6.76,20.26-8.85,22.91C555.9,363.69,555.01,364.8,554.09,365.88z"/>
			</g>
		</g>
		<g>
			<path class="st13" d="M553.1,395.87c0,0-11.37-19.99-28.74-26.01"/>
			<g>
				<path class="st1" d="M533.04,374.06c-0.35-0.04-1.27-1.49-1.5-1.74c-1.28-1.43-2.62-2.81-4.02-4.13
					c-4.61-4.36-12.35-11.08-19.08-7.13c-0.77,0.45-1.48,1.03-1.96,1.79c-2.45,3.85,3.48,5.84,6.12,6.79
					c2.81,1.01,5.72,1.74,8.64,2.38c3.89,0.85,7.83,1.54,11.77,2.05C533.02,374.05,533.03,374.05,533.04,374.06z"/>
			</g>
		</g>
		<g>
			<rect x="537.14" y="387.88" class="st7" width="43.63" height="61.04"/>
			<g>
				<path class="st1" d="M580.27,388.38v60.04h-42.63v-60.04H580.27 M581.27,387.38h-1h-42.63h-1v1v60.04v1h1h42.63h1v-1v-60.04
					V387.38L581.27,387.38z"/>
			</g>
		</g>
		<path class="st14" d="M578.26,448.42h-40.62v-60.04C537.64,388.38,543.38,443.64,578.26,448.42z"/>
	</g>
	<g>
		<g>
			<g>
				<path class="st7" d="M171.96,424.63c-0.11,0-0.23-0.01-0.34-0.02c-1.67-0.17-2.98-1.69-2.98-3.46v-35.97
					c0-0.28,0.22-0.5,0.5-0.5h5.64c0.28,0,0.5,0.22,0.5,0.5v36.13c0,0.89-0.35,1.72-0.97,2.35
					C173.68,424.29,172.85,424.63,171.96,424.63L171.96,424.63z"/>
				<g>
					<path class="st1" d="M174.78,385.18v36.13c0,1.56-1.26,2.82-2.82,2.82c-0.1,0-0.19,0-0.29-0.01c-1.47-0.15-2.53-1.49-2.53-2.97
						v-35.97H174.78 M174.78,384.18h-5.64c-0.55,0-1,0.45-1,1v35.97c0,2.03,1.51,3.77,3.43,3.96c0.13,0.01,0.26,0.02,0.39,0.02
						c2.11,0,3.82-1.71,3.82-3.82v-36.13C175.78,384.62,175.34,384.18,174.78,384.18L174.78,384.18z"/>
				</g>
			</g>
			<path class="st1" d="M172.91,382.42c-0.47-0.63-1.42-0.63-1.89,0l-1.88,2.5v0.26h5.64v-0.26L172.91,382.42z"/>
		</g>
		<g>
			<polygon class="st1" points="163.74,389.53 165.34,390.71 165.34,396.63 163.74,398.06 			"/>
			<g>
				<g>
					<path class="st7" d="M160.92,416.94c-1.83,0-3.32-1.49-3.32-3.32v-29.44h6.64v29.44C164.24,415.45,162.75,416.94,160.92,416.94
						z"/>
					<g>
						<path class="st1" d="M163.74,384.67v28.94c0,1.56-1.26,2.82-2.82,2.82s-2.82-1.26-2.82-2.82v-28.94H163.74 M164.74,383.67h-1
							h-5.64h-1v1v28.94c0,2.11,1.71,3.82,3.82,3.82s3.82-1.71,3.82-3.82v-28.94V383.67L164.74,383.67z"/>
					</g>
				</g>
				<g>
					<path class="st7" d="M157.6,385.17v-4.87c0-1.83,1.49-3.32,3.32-3.32s3.32,1.49,3.32,3.32v4.87H157.6z"/>
					<g>
						<path class="st1" d="M160.92,377.48c1.56,0,2.82,1.26,2.82,2.82v4.37h-5.64v-4.37C158.1,378.75,159.36,377.48,160.92,377.48
							 M160.92,376.48c-2.11,0-3.82,1.71-3.82,3.82v4.37v1h1h5.64h1v-1v-4.37C164.74,378.2,163.03,376.48,160.92,376.48
							L160.92,376.48z"/>
					</g>
				</g>
			</g>
		</g>
		<g>
			<path class="st7" d="M152.12,424.63c-1.83,0-3.32-1.49-3.32-3.32V388c0-1.83,1.49-3.32,3.32-3.32s3.32,1.49,3.32,3.32v33.31
				C155.44,423.14,153.95,424.63,152.12,424.63z"/>
			<g>
				<path class="st1" d="M152.12,385.18c1.56,0,2.82,1.26,2.82,2.82v33.31c0,1.56-1.26,2.82-2.82,2.82c-1.56,0-2.82-1.26-2.82-2.82
					V388C149.29,386.44,150.56,385.18,152.12,385.18 M152.12,384.18c-2.11,0-3.82,1.71-3.82,3.82v33.31c0,2.11,1.71,3.82,3.82,3.82
					c2.11,0,3.82-1.71,3.82-3.82V388C155.94,385.89,154.22,384.18,152.12,384.18L152.12,384.18z"/>
			</g>
		</g>
		<g>
			<polygon class="st1" points="179.97,398.06 178.37,399.25 178.37,405.17 179.97,406.59 			"/>
			<g>
				<g>
					<path class="st7" d="M182.79,425.47c-1.83,0-3.32-1.49-3.32-3.32v-29.44h6.64v29.44C186.11,423.98,184.62,425.47,182.79,425.47
						z"/>
					<g>
						<path class="st1" d="M185.61,393.21v28.94c0,1.56-1.26,2.82-2.82,2.82h0c-1.56,0-2.82-1.26-2.82-2.82v-28.94H185.61
							 M186.61,392.21h-1h-5.64h-1v1v28.94c0,2.11,1.71,3.82,3.82,3.82c2.11,0,3.82-1.71,3.82-3.82v-28.94V392.21L186.61,392.21z"/>
					</g>
				</g>
				<path class="st1" d="M182.79,386.02L182.79,386.02c1.56,0,2.82,1.26,2.82,2.82v4.37h-5.64v-4.37
					C179.97,387.28,181.23,386.02,182.79,386.02z"/>
			</g>
		</g>
		<path class="st1" d="M187.64,401.7v38.71c0,2.9-1.15,5.53-3.02,7.46c-1.95,2.02-4.69,3.28-7.72,3.28h-20.82
			c-5.94,0-10.75-4.81-10.75-10.74V401.7H187.64z"/>
		<path class="st1" d="M184.62,447.88c-1.95,2.02-4.69,3.28-7.72,3.28h-20.82c-5.94,0-10.75-4.81-10.75-10.74V401.7
			C145.33,401.7,158.05,438.27,184.62,447.88z"/>
	</g>
	<g>
		<path class="st12" d="M143.94,471.82c-6.69,0-12.13-5.44-12.13-12.13s5.44-12.13,12.13-12.13h462.12
			c6.69,0,12.13,5.44,12.13,12.13s-5.44,12.13-12.13,12.13H143.94z"/>
		<g>
			<path class="st1" d="M606.06,448.05c6.42,0,11.63,5.21,11.63,11.63c0,6.42-5.21,11.63-11.63,11.63H143.94
				c-6.42,0-11.63-5.21-11.63-11.63c0-6.42,5.21-11.63,11.63-11.63H606.06 M606.06,447.05H143.94c-6.97,0-12.63,5.67-12.63,12.63
				s5.67,12.63,12.63,12.63h462.12c6.97,0,12.63-5.67,12.63-12.63S613.02,447.05,606.06,447.05L606.06,447.05z"/>
		</g>
	</g>
</g>
</svg>
