<?xml version="1.0" encoding="utf-8"?>
<!-- Generator: Adobe Adobe Illustrator 24.2.0, SVG Export Plug-In . SVG Version: 6.00 Build 0)  -->
<svg version="1.1" id="Layer_1" xmlns="http://www.w3.org/2000/svg" xmlns:xlink="http://www.w3.org/1999/xlink" x="0px" y="0px"
	 viewBox="0 0 900 300" style="enable-background:new 0 0 900 300;" xml:space="preserve">
<style type="text/css">
	.st0{fill:#6505FC;}
	.st1{fill:none;stroke:#FFFFFF;stroke-miterlimit:10;}
	.st2{fill:#FFFFFF;stroke:#6505FC;stroke-miterlimit:10;}
	.st3{fill:none;stroke:#6505FC;stroke-miterlimit:10;}
	.st4{fill:none;}
	.st5{fill:#FFFFFF;}
	.st6{font-family:'OpenSans-Bold';}
	.st7{font-size:22px;}
</style>
<path class="st0" d="M58.42,108.85h76.28c2.28,0,4.41,1.18,5.62,3.11l48.12,76.99c1.34,2.15,1.34,4.88,0,7.02l-48.12,76.99
	c-1.21,1.94-3.33,3.11-5.62,3.11H58.42c-2.28,0-4.41-1.18-5.62-3.11L4.68,195.98c-1.34-2.15-1.34-4.88,0-7.02l48.12-76.99
	C54.01,110.02,56.13,108.85,58.42,108.85z"/>
<path class="st1" d="M63.71,120.45h65.7c1.97,0,3.8,1.01,4.84,2.68l41.45,66.31c1.16,1.85,1.16,4.2,0,6.05l-41.45,66.31
	c-1.04,1.67-2.87,2.68-4.84,2.68h-65.7c-1.97,0-3.8-1.01-4.84-2.68l-41.45-66.31c-1.16-1.85-1.16-4.2,0-6.05l41.45-66.31
	C59.91,121.46,61.74,120.45,63.71,120.45z"/>
<path class="st2" d="M200.18,25.23h76.28c2.28,0,4.41,1.18,5.62,3.11l48.12,76.99c1.34,2.15,1.34,4.88,0,7.02l-48.12,76.99
	c-1.21,1.94-3.33,3.11-5.62,3.11h-76.28c-2.28,0-4.41-1.18-5.62-3.11l-48.12-76.99c-1.34-2.15-1.34-4.88,0-7.02l48.12-76.99
	C195.77,26.4,197.89,25.23,200.18,25.23z"/>
<path class="st2" d="M200.18,25.23h76.28c2.28,0,4.41,1.18,5.62,3.11l48.12,76.99c1.34,2.15,1.34,4.88,0,7.02l-48.12,76.99
	c-1.21,1.94-3.33,3.11-5.62,3.11h-76.28c-2.28,0-4.41-1.18-5.62-3.11l-48.12-76.99c-1.34-2.15-1.34-4.88,0-7.02l48.12-76.99
	C195.77,26.4,197.89,25.23,200.18,25.23z"/>
<path class="st0" d="M341.1,108.85h76.28c2.28,0,4.41,1.18,5.62,3.11l48.12,76.99c1.34,2.15,1.34,4.88,0,7.02l-48.12,76.99
	c-1.21,1.94-3.33,3.11-5.62,3.11H341.1c-2.28,0-4.41-1.18-5.62-3.11l-48.12-76.99c-1.34-2.15-1.34-4.88,0-7.02l48.12-76.99
	C336.69,110.02,338.81,108.85,341.1,108.85z"/>
<path class="st2" d="M482.74,25.23h76.28c2.28,0,4.41,1.18,5.62,3.11l48.12,76.99c1.34,2.15,1.34,4.88,0,7.02l-48.12,76.99
	c-1.21,1.94-3.33,3.11-5.62,3.11h-76.28c-2.28,0-4.41-1.18-5.62-3.11L429,112.36c-1.34-2.15-1.34-4.88,0-7.02l48.12-76.99
	C478.33,26.4,480.46,25.23,482.74,25.23z"/>
<path class="st0" d="M623.77,107.53h76.28c2.28,0,4.41,1.18,5.62,3.11l48.12,76.99c1.34,2.15,1.34,4.88,0,7.02l-48.12,76.99
	c-1.21,1.94-3.33,3.11-5.62,3.11h-76.28c-2.28,0-4.41-1.18-5.62-3.11l-48.12-76.99c-1.34-2.15-1.34-4.88,0-7.02l48.12-76.99
	C619.36,108.71,621.49,107.53,623.77,107.53z"/>
<path class="st1" d="M346.39,119.13h65.7c1.97,0,3.8,1.01,4.84,2.68l41.45,66.31c1.16,1.85,1.16,4.2,0,6.05l-41.45,66.31
	c-1.04,1.67-2.87,2.68-4.84,2.68h-65.7c-1.97,0-3.8-1.01-4.84-2.68l-41.45-66.31c-1.16-1.85-1.16-4.2,0-6.05l41.45-66.31
	C342.59,120.14,344.42,119.13,346.39,119.13z"/>
<path class="st1" d="M629.06,119.13h65.7c1.97,0,3.8,1.01,4.84,2.68l41.45,66.31c1.16,1.85,1.16,4.2,0,6.05l-41.45,66.31
	c-1.04,1.67-2.87,2.68-4.84,2.68h-65.7c-1.97,0-3.8-1.01-4.84-2.68l-41.45-66.31c-1.16-1.85-1.16-4.2,0-6.05l41.45-66.31
	C625.26,120.14,627.09,119.13,629.06,119.13z"/>
<path class="st2" d="M765.31,23.91h76.28c2.28,0,4.41,1.18,5.62,3.11l48.12,76.99c1.34,2.15,1.34,4.88,0,7.02l-48.12,76.99
	c-1.21,1.94-3.33,3.11-5.62,3.11h-76.28c-2.28,0-4.41-1.18-5.62-3.11l-48.12-76.99c-1.34-2.15-1.34-4.88,0-7.02l48.12-76.99
	C760.9,25.09,763.02,23.91,765.31,23.91z"/>
<path class="st3" d="M205.47,35.51h65.7c1.97,0,3.8,1.01,4.84,2.68l41.45,66.31c1.16,1.85,1.16,4.2,0,6.05L276,176.87
	c-1.04,1.67-2.87,2.68-4.84,2.68h-65.7c-1.97,0-3.8-1.01-4.84-2.68l-41.45-66.31c-1.16-1.85-1.16-4.2,0-6.05l41.45-66.31
	C201.67,36.52,203.5,35.51,205.47,35.51z"/>
<path class="st3" d="M488.03,36.83h65.7c1.97,0,3.8,1.01,4.84,2.68l41.45,66.31c1.16,1.85,1.16,4.2,0,6.05l-41.45,66.31
	c-1.04,1.67-2.87,2.68-4.84,2.68h-65.7c-1.97,0-3.8-1.01-4.84-2.68l-41.45-66.31c-1.16-1.85-1.16-4.2,0-6.05l41.45-66.31
	C484.23,37.84,486.06,36.83,488.03,36.83z"/>
<path class="st3" d="M770.6,36.83h65.7c1.97,0,3.8,1.01,4.84,2.68l41.45,66.31c1.16,1.85,1.16,4.2,0,6.05l-41.45,66.31
	c-1.04,1.67-2.87,2.68-4.84,2.68h-65.7c-1.97,0-3.8-1.01-4.84-2.68l-41.45-66.31c-1.16-1.85-1.16-4.2,0-6.05l41.45-66.31
	C766.8,37.84,768.63,36.83,770.6,36.83z"/>
<rect x="82.77" y="203.24" class="st4" width="70" height="0"/>
<text transform="matrix(1.0701 0 0 1 62.9855 198.6724)" class="st5 st6 st7">HTML</text>
<text transform="matrix(1 0 0 1 219.1876 113.7345)" class="st0 st6 st7">CSS</text>
<text transform="matrix(1.0059 0 0 1 316.4642 198.6726)" class="st5 st6 st7">JAVASCRIPT</text>
<text transform="matrix(1 0 0 1 502.5934 115.0511)" class="st0 st6 st7">GIT</text>
<text transform="matrix(1 0 0 1 636.1436 197.3561)" class="st5 st6 st7">SASS</text>
<text transform="matrix(1 0 0 1 737.9849 113.7343)" class="st0 st6 st7">BOOTSTRAP</text>
</svg>
