<?xml version="1.0" encoding="utf-8"?>
<!-- Generator: Adobe Adobe Illustrator 24.2.0, SVG Export Plug-In . SVG Version: 6.00 Build 0)  -->
<svg version="1.1" id="Layer_1" xmlns="http://www.w3.org/2000/svg" xmlns:xlink="http://www.w3.org/1999/xlink" x="0px" y="0px"
	 viewBox="0 0 500 500" style="enable-background:new 0 0 500 500;" xml:space="preserve">
<style type="text/css">
	.st0{fill:#6505FC;}
	.st1{fill:none;stroke:#FFFFFF;stroke-miterlimit:10;}
	.st2{fill:#FFFFFF;stroke:#6505FC;stroke-miterlimit:10;}
	.st3{fill:none;stroke:#6505FC;stroke-miterlimit:10;}
	.st4{fill:none;}
	.st5{fill:#FFFFFF;}
	.st6{font-family:'OpenSans-Bold';}
	.st7{font-size:22px;}
</style>
<path class="st0" d="M70.34,122h76.28c2.28,0,4.41,1.18,5.62,3.11l48.12,76.99c1.34,2.15,1.34,4.88,0,7.02l-48.12,76.99
	c-1.21,1.94-3.33,3.11-5.62,3.11H70.34c-2.28,0-4.41-1.18-5.62-3.11L16.6,209.13c-1.34-2.15-1.34-4.88,0-7.02l48.12-76.99
	C65.93,123.18,68.06,122,70.34,122z"/>
<path class="st1" d="M75.63,133.6h65.7c1.97,0,3.8,1.01,4.84,2.68l41.45,66.31c1.16,1.85,1.16,4.2,0,6.05l-41.45,66.31
	c-1.04,1.67-2.87,2.68-4.84,2.68h-65.7c-1.97,0-3.8-1.01-4.84-2.68l-41.45-66.31c-1.16-1.85-1.16-4.2,0-6.05l41.45-66.31
	C71.84,134.61,73.66,133.6,75.63,133.6z"/>
<path class="st2" d="M212.1,38.38h76.28c2.28,0,4.41,1.18,5.62,3.11l48.12,76.99c1.34,2.15,1.34,4.88,0,7.02l-48.12,76.99
	c-1.21,1.94-3.33,3.11-5.62,3.11H212.1c-2.28,0-4.41-1.18-5.62-3.11l-48.12-76.99c-1.34-2.15-1.34-4.88,0-7.02l48.12-76.99
	C207.69,39.56,209.81,38.38,212.1,38.38z"/>
<path class="st2" d="M212.1,38.38h76.28c2.28,0,4.41,1.18,5.62,3.11l48.12,76.99c1.34,2.15,1.34,4.88,0,7.02l-48.12,76.99
	c-1.21,1.94-3.33,3.11-5.62,3.11H212.1c-2.28,0-4.41-1.18-5.62-3.11l-48.12-76.99c-1.34-2.15-1.34-4.88,0-7.02l48.12-76.99
	C207.69,39.56,209.81,38.38,212.1,38.38z"/>
<path class="st0" d="M353.02,122h76.28c2.28,0,4.41,1.18,5.62,3.11l48.12,76.99c1.34,2.15,1.34,4.88,0,7.02l-48.12,76.99
	c-1.21,1.94-3.33,3.11-5.62,3.11h-76.28c-2.28,0-4.41-1.18-5.62-3.11l-48.12-76.99c-1.34-2.15-1.34-4.88,0-7.02l48.12-76.99
	C348.61,123.18,350.73,122,353.02,122z"/>
<path class="st2" d="M70.82,294.38h76.28c2.28,0,4.41,1.18,5.62,3.11l48.12,76.99c1.34,2.15,1.34,4.88,0,7.02l-48.12,76.99
	c-1.21,1.94-3.33,3.11-5.62,3.11H70.82c-2.28,0-4.41-1.18-5.62-3.11l-48.12-76.99c-1.34-2.15-1.34-4.88,0-7.02l48.12-76.99
	C66.41,295.56,68.53,294.38,70.82,294.38z"/>
<path class="st0" d="M212.1,209.44h76.28c2.28,0,4.41,1.18,5.62,3.11l48.12,76.99c1.34,2.15,1.34,4.88,0,7.02l-48.12,76.99
	c-1.21,1.94-3.33,3.11-5.62,3.11H212.1c-2.28,0-4.41-1.18-5.62-3.11l-48.12-76.99c-1.34-2.15-1.34-4.88,0-7.02l48.12-76.99
	C207.69,210.62,209.81,209.44,212.1,209.44z"/>
<path class="st1" d="M358.31,132.28H424c1.97,0,3.8,1.01,4.84,2.68l41.45,66.31c1.16,1.85,1.16,4.2,0,6.05l-41.45,66.31
	c-1.04,1.67-2.87,2.68-4.84,2.68h-65.7c-1.97,0-3.8-1.01-4.84-2.68l-41.45-66.31c-1.16-1.85-1.16-4.2,0-6.05l41.45-66.31
	C354.51,133.3,356.34,132.28,358.31,132.28z"/>
<path class="st1" d="M217.39,221.04h65.7c1.97,0,3.8,1.01,4.84,2.68l41.45,66.31c1.16,1.85,1.16,4.2,0,6.05l-41.45,66.31
	c-1.04,1.67-2.87,2.68-4.84,2.68h-65.7c-1.97,0-3.8-1.01-4.84-2.68l-41.45-66.31c-1.16-1.85-1.16-4.2,0-6.05l41.45-66.31
	C213.59,222.05,215.42,221.04,217.39,221.04z"/>
<path class="st2" d="M353.38,293.06h76.28c2.28,0,4.41,1.18,5.62,3.11l48.12,76.99c1.34,2.15,1.34,4.88,0,7.02l-48.12,76.99
	c-1.21,1.94-3.33,3.11-5.62,3.11h-76.28c-2.28,0-4.41-1.18-5.62-3.11l-48.12-76.99c-1.34-2.15-1.34-4.88,0-7.02l48.12-76.99
	C348.97,294.24,351.1,293.06,353.38,293.06z"/>
<path class="st3" d="M217.39,48.66h65.7c1.97,0,3.8,1.01,4.84,2.68l41.45,66.31c1.16,1.85,1.16,4.2,0,6.05l-41.45,66.31
	c-1.04,1.67-2.87,2.68-4.84,2.68h-65.7c-1.97,0-3.8-1.01-4.84-2.68l-41.45-66.31c-1.16-1.85-1.16-4.2,0-6.05l41.45-66.31
	C213.59,49.67,215.42,48.66,217.39,48.66z"/>
<path class="st3" d="M76.11,305.98h65.7c1.97,0,3.8,1.01,4.84,2.68l41.45,66.31c1.16,1.85,1.16,4.2,0,6.05l-41.45,66.31
	c-1.04,1.67-2.87,2.68-4.84,2.68h-65.7c-1.97,0-3.8-1.01-4.84-2.68l-41.45-66.31c-1.16-1.85-1.16-4.2,0-6.05l41.45-66.31
	C72.31,306.99,74.14,305.98,76.11,305.98z"/>
<path class="st3" d="M358.67,305.98h65.7c1.97,0,3.8,1.01,4.84,2.68l41.45,66.31c1.16,1.85,1.16,4.2,0,6.05l-41.45,66.31
	c-1.04,1.67-2.87,2.68-4.84,2.68h-65.7c-1.97,0-3.8-1.01-4.84-2.68l-41.45-66.31c-1.16-1.85-1.16-4.2,0-6.05l41.45-66.31
	C354.87,306.99,356.7,305.98,358.67,305.98z"/>
<rect x="94.69" y="216.39" class="st4" width="70" height="0"/>
<text transform="matrix(1.0701 0 0 1 74.9089 211.8247)" class="st5 st6 st7">HTML</text>
<text transform="matrix(1 0 0 1 231.1109 126.8869)" class="st0 st6 st7">CSS</text>
<text transform="matrix(1.0059 0 0 1 328.3875 211.825)" class="st5 st6 st7">JAVASCRIPT</text>
<text transform="matrix(1 0 0 1 90.67 384.2035)" class="st0 st6 st7">GIT</text>
<text transform="matrix(1 0 0 1 224.4723 299.2655)" class="st5 st6 st7">SASS</text>
<text transform="matrix(1 0 0 1 326.0615 382.8867)" class="st0 st6 st7">BOOTSTRAP</text>
</svg>
