<?xml version="1.0" encoding="utf-8"?>
<!-- Generator: Adobe Adobe Illustrator 24.2.0, SVG Export Plug-In . SVG Version: 6.00 Build 0)  -->
<svg version="1.1" id="Layer_1" xmlns="http://www.w3.org/2000/svg" xmlns:xlink="http://www.w3.org/1999/xlink" x="0px" y="0px"
	 viewBox="0 0 500 500" style="enable-background:new 0 0 500 500;" xml:space="preserve">
<style type="text/css">
	.st0{fill:#6505FC;}
	.st1{fill:#FF8A9B;}
	.st2{fill:#4F3E3E;}
</style>
<g>
	<path class="st0" d="M127.27,342.28c10.88-0.25,20.75,2.25,29.6,9.07c10.4,8.02,19.41,16.83,22.8,30.08
		c7.2,28.13-3.68,49.39-26.85,62.07c-12,6.57-24.81,8.38-38.29,5.94c-12.27-2.23-21.13-9.29-28.35-19.06
		c-15.48-20.97-12.92-53.61,0.93-70.93c8.37-10.46,19.19-16.34,32.74-16.81C122.34,342.54,124.8,342.4,127.27,342.28z"/>
	<path class="st0" d="M426.04,436c-0.37,28.75-21.8,50.8-50.49,51.78c-1.48,0.05-2.99,0.06-4.44-0.21
		c-23.42-4.31-44.65-18.45-47.25-46.97c-1.61-17.71,2.72-33.37,15.78-45.41c15.03-13.85,32.95-16.81,51.93-9.18
		c19.14,7.7,29.72,22.76,33.89,42.61C425.97,431.02,425.86,433.54,426.04,436z"/>
	<path class="st1" d="M129.59,369.35c5.98-0.14,11.41,1.24,16.27,4.99c5.71,4.41,10.67,9.25,12.53,16.53
		c3.96,15.46-2.02,27.14-14.76,34.11c-6.6,3.61-13.64,4.61-21.04,3.26c-6.74-1.22-11.61-5.1-15.58-10.48
		c-8.51-11.53-7.1-29.47,0.51-38.99c4.6-5.75,10.54-8.98,17.99-9.24C126.88,369.5,128.23,369.42,129.59,369.35z"/>
	<path class="st1" d="M405.1,434.78c-0.2,15.8-11.98,27.92-27.75,28.46c-0.81,0.03-1.64,0.03-2.44-0.12
		c-12.87-2.37-24.54-10.14-25.97-25.81c-0.89-9.73,1.49-18.34,8.67-24.96c8.26-7.61,18.11-9.24,28.54-5.05
		c10.52,4.23,16.34,12.51,18.63,23.42C405.06,432.04,405,433.42,405.1,434.78z"/>
	<path class="st0" d="M459.3,145.63c-0.47,8.87-2.67,18.88-4.2,28.98c-2.7,17.76-6.24,35.43-5.76,53.53
		c0.31,11.88,1.74,23.68,2.85,35.49c1.96,20.74,1.52,41.19-6.5,60.86c-2.18,5.36-4.75,10.53-7.8,15.43
		c-5.22,8.39-10.6,10.64-20.07,7.98c-17.22-4.82-34.88-6.97-52.55-9.18c-7.35-0.92-14.63-2.42-21.99-3.3
		c-21.28-2.56-41.78-0.05-61.02,9.99c-7.31,3.81-14.57,7.72-21.99,11.3c-14.09,6.79-28.81,10.45-44.55,7.72
		c-7.14-1.24-14.24-2.74-21.37-4.08c-14.58-2.75-29.28-4.78-43.99-6.7c-27.99-3.67-55.8-8.06-82.46-17.84
		c-5.75-2.11-11.35-4.47-16.38-8.02c-8.04-5.68-11.72-13.29-9.69-23.12c2.47-12,6.02-23.6,12.8-34.05
		c5.26-8.11,12.13-14.31,20.54-18.88c11.6-6.3,23.95-9.92,37.15-11.08c22.2-1.96,44.3-4.8,65.57-11.81
		c31.28-10.31,60.33-24.82,85.44-46.53c8.04-6.95,15.06-14.8,21.37-23.29c17.66-23.72,33.09-48.87,47.62-74.6
		c1.8-3.2,1.98-3.34,5.87-1.86c14.59,5.55,27.83,13.56,40.66,22.31c5.31,3.62,10.67,7.19,16.06,10.69
		c17.15,11.11,36.09,17.5,56.05,21.21c1.13,0.21,2.25,0.5,3.37,0.78C459.43,138.89,459.43,138.9,459.3,145.63z"/>
	<path class="st2" d="M328.09,340.84c-16.14-0.86-30.78,3.55-44.48,12.16c-12.45,7.83-25.73,14.06-40.39,16.85
		c-8.18,1.55-16.43,1.8-24.64,1.24c-16.44-1.12-32.84-2.82-49.16-5.19c-21.23-3.07-42.11-7.87-62.96-12.77
		c-17.16-4.03-34.41-7.72-51.4-12.45c-4.13-1.15-8.19-2.5-12.01-4.51c-3.28-1.73-4.94-4.21-4.33-8.02
		c0.55-3.41,0.83-6.88,1.58-10.25c0.78-3.52,1.8-4.02,5.3-2.99c3.95,1.16,7.87,2.44,11.78,3.71c18.24,5.91,37.09,9.23,55.82,13.01
		c25.2,5.1,50.47,9.84,75.74,14.56c11.83,2.21,23.73,3.99,35.78,4.65c11.2,0.61,22.02-1,32.56-4.71c6.85-2.41,13.51-5.27,20.11-8.27
		c18.11-8.24,37.27-11.87,57.02-13.03c11.7-0.69,23.38-1.19,35.09-0.24c19.27,1.56,38.3,4.45,56.97,9.55c3.65,1,7.4,1.68,11.03,2.73
		c3.03,0.88,3.35,1.62,2.77,4.68c-2.26,11.99-3.88,24.08-5.45,36.17c-0.4,3.13-1.08,6.16-2.23,9.09c-1.04,2.65-2.82,4.13-5.78,4.72
		c-5.02,1-9.92,0.1-14.75-0.61c-22.66-3.33-45.3-6.87-67.67-11.85c-7.64-1.7-8.76-3.18-7.44-10.9c1.36-7.96,2.9-15.89,4.38-23.82
		c0.56-3.02,0.39-3.37-2.85-3.5C335.02,340.74,331.56,340.84,328.09,340.84z"/>
	<path class="st2" d="M152.77,266c0.04,4.48-4.36,9.17-8.59,9.15c-4.16-0.01-8.39-4.09-8.4-8.09c-0.01-4.53,4.24-8.6,8.95-8.57
		C149.25,258.51,152.74,261.77,152.77,266z"/>
	<path class="st2" d="M183.29,266.44c-3.96,0.1-7.76-3.55-7.7-7.4c0.06-3.92,3.97-7.96,7.86-8.14c4.11-0.19,7.78,3.14,7.86,7.14
		C191.4,262.26,187.51,266.33,183.29,266.44z"/>
	<path class="st2" d="M214.3,254.61c-3.75,0.12-7.34-3.34-7.32-7.07c0.02-3.91,3.58-7.71,7.35-7.84c3.84-0.13,7.21,3.13,7.29,7.07
		C221.7,250.65,218.12,254.49,214.3,254.61z"/>
	<path class="st2" d="M255.24,228.69c0.12,4.04-3.28,7.62-7.39,7.77c-3.8,0.14-7.17-2.81-7.38-6.47c-0.23-4.12,3.4-7.92,7.67-8.03
		C251.94,221.88,255.13,224.9,255.24,228.69z"/>
	<path class="st2" d="M330.58,154.13c-3.86-0.02-6.76-3.09-6.64-7.02c0.12-4.08,3.59-7.4,7.7-7.36c3.58,0.03,6.71,3,6.81,6.44
		C338.56,150.15,334.59,154.15,330.58,154.13z"/>
	<path class="st2" d="M309.74,187.45c-3.73-0.08-6.58-2.94-6.57-6.57c0.01-4.14,3.83-7.55,8.26-7.36c3.52,0.15,6.42,2.97,6.4,6.23
		C317.8,183.77,313.84,187.54,309.74,187.45z"/>
	<path class="st2" d="M355.34,112.45c0.09,3.83-3.61,7.63-7.53,7.72c-3.63,0.09-6.73-2.79-6.87-6.37c-0.15-3.8,3.58-7.62,7.52-7.7
		C352.08,106.02,355.25,108.96,355.34,112.45z"/>
	<path class="st2" d="M282.21,199.9c3.58,0.08,6.41,3.2,6.22,6.86c-0.19,3.52-3.29,6.28-6.99,6.2c-3.6-0.08-6.39-2.83-6.28-6.2
		C275.29,203.08,278.64,199.82,282.21,199.9z"/>
	<path class="st1" d="M455.2,144.34c-4.48-1.07-9.77-2.32-15.05-3.58c-24.86-5.93-47.15-17.47-68.4-31.29
		c-1.1-0.71-2.19-1.51-3.06-2.47c-1.34-1.46-1.63-3.21-0.58-5.01c1.05-1.8,2.68-2.31,4.65-2.05c1.54,0.21,2.69,1.18,3.94,1.97
		c9.49,5.96,19.12,11.68,29.12,16.75c15.26,7.73,31.57,12.29,48.14,16.08c1.28,0.29,2.61,0.48,3.84,0.91c2.68,0.94,4,2.97,3.52,5.17
		C460.83,143.01,458.7,144.45,455.2,144.34z"/>
	<path class="st2" d="M141.25,396.39c0,5.76-4.67,10.43-10.43,10.43c-5.76,0-10.43-4.67-10.43-10.43c0-5.76,4.67-10.43,10.43-10.43
		C136.58,385.96,141.25,390.63,141.25,396.39z"/>
	<path class="st2" d="M388.58,432.72c0,5.76-4.67,10.43-10.43,10.43c-5.76,0-10.43-4.67-10.43-10.43s4.67-10.43,10.43-10.43
		C383.91,422.29,388.58,426.96,388.58,432.72z"/>
	<path class="st1" d="M255.91,198.74c-0.45,6.19-0.89,12.42-1.38,18.65c-0.21,2.63-0.35,5.28-0.87,7.86
		c-0.91,4.49-3.61,5.73-7.58,3.33c-4.94-2.98-9.67-6.31-14.55-9.4c-1.34-0.85-2.51-2.19-4.47-2.13c-1.74,3.93-2.05,8.26-3.09,12.39
		c-1.01,3.99-1.84,8.03-2.83,12.03c-0.31,1.27-0.72,2.57-1.36,3.69c-1.66,2.88-4.06,3.36-6.48,1c-3.54-3.45-6.81-7.18-10.22-10.77
		c-1.21-1.28-2.31-2.72-4.4-3.69c-1.57,4.62-3.04,8.93-4.51,13.25c-1.22,3.59-2.39,7.21-4.2,10.56c-2.47,4.6-4.77,5.18-9.12,2.36
		c-5.83-3.78-11.12-8.25-16.4-12.75c-1.75-1.49-3.4-3.13-5.73-4.18c-2.32,3.24-3.41,7.07-4.94,10.66
		c-1.68,3.94-2.99,8.03-4.51,12.04c-0.46,1.22-0.96,2.47-1.67,3.55c-0.8,1.22-2.11,1.56-3.5,1.07c-1.41-0.49-2.16-1.64-2.06-3.05
		c0.1-1.29,0.53-2.57,0.95-3.82c2.75-8.13,6.07-16.04,9.54-23.88c2.25-5.07,4.59-5.74,9.28-2.76c3.91,2.49,7.4,5.53,10.86,8.59
		s7.1,5.87,10.99,8.32c1.93-1.09,2.11-3.03,2.69-4.67c2.19-6.22,4.28-12.47,6.41-18.72c0.27-0.78,0.48-1.58,0.78-2.35
		c1.93-5,4.47-5.45,8.34-1.45c3.55,3.68,7.04,7.42,10.58,11.12c0.67,0.7,1.17,1.62,2.42,1.89c1.4-1.88,1.43-4.26,1.95-6.44
		c1.25-5.29,2.33-10.63,3.53-15.93c0.29-1.28,0.66-2.57,1.18-3.77c1.45-3.41,3.46-4.16,6.63-2.21c4.78,2.94,9.42,6.08,14.13,9.13
		c1.48,0.96,3,1.86,5.13,3.19c0.29-3.07,0.55-5.45,0.75-7.84c0.5-6.08,0.92-12.17,1.46-18.25c0.51-5.73,3.17-7.15,8.3-4.37
		c6.38,3.46,13,6.33,19.91,8.81c1-2.03,0.39-3.79,0.02-5.49c-1.22-5.64-2.57-11.25-3.8-16.89c-1.26-5.8,1.23-8.2,7.02-6.54
		c5.72,1.63,11.53,2.82,17.33,4.02c1.73,0.36,3.51,0.53,5.4,0.81c0.6-2.43-0.64-4.13-1.27-5.9c-2.15-6.06-4.63-12-6.61-18.11
		c-2.32-7.13-0.29-9.8,7.36-9.79c5.93,0.01,11.86,0.47,17.79,0.7c1.31,0.05,2.62,0.01,3.88,0.01c1-1.79-0.11-3.05-0.59-4.32
		c-2.38-6.33-4.96-12.58-7.26-18.94c-2.66-7.38-1.26-9.31,6.44-9.36c4.62-0.03,9.24-0.01,13.86-0.1c1.61-0.03,3.29,0.26,4.79-0.6
		c0.74-1.34-0.29-2.25-0.81-3.17c-2.93-5.16-6.07-10.21-8.88-15.44c-1.23-2.29-2.44-2.49-4.72-1.54c-8.1,3.37-16.44,5.85-25.26,6.58
		c-6.98,0.58-13.86,0.21-20.61-1.63c-8.2-2.24-15.2-6.4-19.94-13.68c-5.79-8.91-2.22-17.52,8.12-19.98
		c5.3-1.27,10.49-0.52,15.69,0.5c9.63,1.88,18.58,5.67,27.35,9.92c1.48,0.72,2.96,1.43,4.67,2.25c0.55-1.83-0.71-2.93-1.29-4.12
		c-5.66-11.42-10.35-23.17-12.91-35.71c-0.73-3.6-0.93-7.22-0.4-10.83c1.11-7.61,7.25-11.65,14.77-9.89
		c4.5,1.06,8.09,3.65,11.25,6.86c7.63,7.74,11.41,17.24,12.4,27.91c0.6,6.43,0.28,12.85-0.51,19.26c-0.24,1.93-0.86,3.86-0.28,5.8
		c0.93,0.4,1.67-0.02,2.4-0.32c17.08-7.06,34.97-10.58,53.28-12.28c0.33-0.03,0.66-0.07,0.99-0.08c2.14-0.09,4.04,0.3,4.53,2.79
		c0.39,2-1.13,3.45-4.14,3.87c-3.27,0.46-6.56,0.72-9.83,1.1c-14.15,1.66-27.87,5.08-41.14,10.26c-1.3,0.51-2.92,0.75-3.64,2.47
		c3.48,1.4,7.19,1,10.75,1.52c16.02,2.33,31.63,6.55,47.44,9.87c1.77,0.37,3.56,0.68,5.31,1.17c1.82,0.51,2.79,1.79,2.43,3.72
		c-0.32,1.69-1.58,2.52-3.21,2.52c-1.3,0-2.62-0.25-3.9-0.51c-13.58-2.71-26.95-6.38-40.59-8.78c-7.45-1.31-14.92-2.34-22.49-2.7
		c-0.4,2.19,0.97,3.38,1.74,4.75c2.98,5.32,6.12,10.56,9.07,15.9c3.02,5.47,1.35,8.16-5.05,8.47c-6.09,0.29-12.18,0.81-18.29,0.65
		c-0.8-0.02-1.61,0.18-2.38,0.28c-0.57,2.09,0.54,3.69,1.16,5.33c1.85,4.94,3.9,9.81,5.78,14.74c0.76,1.99,1.5,4.04,1.87,6.13
		c0.64,3.71-0.48,5.13-4.28,5.66c-4.59,0.64-9.2,0.53-13.83,0.15c-4.08-0.34-8.18-0.94-12.38-0.25c-0.2,2.34,0.88,4.25,1.6,6.23
		c2.17,5.88,4.55,11.68,6.53,17.62c2.67,8.02,0.4,12.18-8.6,9.74c-5.56-1.51-11.29-2.38-16.93-3.58c-1.11-0.24-2.17-0.61-3.79-0.26
		c0.86,3.86,1.71,7.49,2.48,11.13c0.81,3.87,1.69,7.74,1.61,11.74c-0.1,5.29-2.7,7.21-7.67,5.47c-6.54-2.29-12.88-5.08-19.14-8.03
		C257.93,198.63,257.39,198.21,255.91,198.74z M331.14,78.73c0.28-0.22,0.6-0.36,0.73-0.6c0.31-0.58,0.64-1.18,0.78-1.81
		c2.43-10.69,3.7-21.49,1.83-32.37c-1.43-8.32-5.03-15.66-11.56-21.31c-1.64-1.42-3.39-2.66-5.45-3.34c-4.32-1.43-7,0.29-7.72,4.81
		c-0.48,3-0.1,5.97,0.58,8.84c3.55,15.02,9.02,29.27,17.67,42.16C328.87,76.43,329.43,78.12,331.14,78.73z M322.12,84.04
		c-0.31-0.43-0.44-0.78-0.7-0.93c-12.75-7.75-26.13-13.96-41.01-16.35c-2.76-0.44-5.59-0.52-8.36,0.1
		c-6.34,1.41-7.84,5.03-4.27,10.4c3.45,5.18,8.53,8.14,14.3,10c7.68,2.47,15.59,2.51,23.48,1.47
		C311.26,87.97,316.85,86.61,322.12,84.04z"/>
</g>
</svg>
